<svg xmlns="http://www.w3.org/2000/svg" width="222.032" height="30.253" viewBox="0 0 222.032 30.253"><g transform="translate(-736.032 -460.945)"><g transform="translate(736.032 460.945)"><path d="M736.032,491.12V476.032h15.087l-15.087-15.087h30.173v15.087H751.119l15.087,15.088Z" transform="translate(-736.032 -460.945)" fill="#fff"/><path d="M784.749,491.12H754.574l30.175-30.175Z" transform="translate(-724.4 -460.945)" fill="#fff"/></g><g transform="translate(807.29 461.243)"><path d="M792.044,474.369h-9.158a3.067,3.067,0,0,1-3.064-3.067V470.7h11.932a.534.534,0,0,0,.273-.078.587.587,0,0,0,.291-.508v-.449H781.87a1.988,1.988,0,0,1-1.443-.6,1.961,1.961,0,0,1-.605-1.455v-2.519a3.964,3.964,0,0,1,3.964-3.964h9.158a3.087,3.087,0,0,1,3.066,3.066v.625H784.078a.552.552,0,0,0-.4.166.54.54,0,0,0-.166.4v.527h10.426a2.013,2.013,0,0,1,1.466.6,1.966,1.966,0,0,1,.605,1.455v2.461a3.97,3.97,0,0,1-3.966,3.946Z" transform="translate(-779.821 -461.128)" fill="#fff"/><path d="M794.66,474.369h-3.691V461.128h14.156a1.964,1.964,0,0,1,1.456.605,1.989,1.989,0,0,1,.6,1.447v5.526a1.985,1.985,0,0,1-.6,1.443,1.964,1.964,0,0,1-1.456.605H794.66Zm8.846-7.3v-2.246H794.66v2.246Z" transform="translate(-772.828 -461.128)" fill="#fff"/><path d="M814.373,474.369h-8.28a3.97,3.97,0,0,1-3.964-3.946v-5.331a3.967,3.967,0,0,1,3.964-3.964h8.28a3.967,3.967,0,0,1,3.964,3.964v5.331a3.97,3.97,0,0,1-3.964,3.946Zm-7.967-9.551a.557.557,0,0,0-.41.176.587.587,0,0,0-.176.43v4.667a.568.568,0,0,0,.176.412.561.561,0,0,0,.41.174h7.655a.589.589,0,0,0,.43-.174.568.568,0,0,0,.176-.412v-4.667a.6.6,0,0,0-.605-.605Z" transform="translate(-765.827 -461.128)" fill="#fff"/><path d="M816.98,474.329h-3.691v-13.2h14.119a2,2,0,0,1,1.484.615,2.027,2.027,0,0,1,.605,1.474v5.448a2.025,2.025,0,0,1-.605,1.474,2,2,0,0,1-1.484.615H826.8l3.574,3.574h-5.214l-3.574-3.574H816.98Zm0-7.264h8.846v-2.246H816.98Z" transform="translate(-758.826 -461.128)" fill="#fff"/><path d="M834.948,474.329h-3.691v-9.51h-6.268v-3.691H841.2v3.691h-6.247Z" transform="translate(-751.487 -461.128)" fill="#fff"/><path d="M848.391,474.369h-8.28a3.97,3.97,0,0,1-3.962-3.946v-5.331a3.967,3.967,0,0,1,3.962-3.964h8.28a3.967,3.967,0,0,1,3.966,3.964v5.331a3.97,3.97,0,0,1-3.966,3.946Zm-7.966-9.551a.557.557,0,0,0-.41.176.582.582,0,0,0-.177.43v4.667a.6.6,0,0,0,.587.586h7.655a.588.588,0,0,0,.428-.174.564.564,0,0,0,.177-.412v-4.667a.6.6,0,0,0-.605-.605Z" transform="translate(-744.486 -461.128)" fill="#fff"/><path d="M866.132,474.329h-5.975a2.035,2.035,0,0,1-1.463-.6,2,2,0,0,1-1.465.6h-5.958a3.967,3.967,0,0,1-3.963-3.964v-9.237H851v8.924a.607.607,0,0,0,.588.587h5.271v-9.512h3.692v8.924a.583.583,0,0,0,.164.41.555.555,0,0,0,.421.177h4.706a.567.567,0,0,0,.565-.568v-8.944H870.1v9.237a3.967,3.967,0,0,1-3.966,3.964Z" transform="translate(-737.485 -461.128)" fill="#fff"/><path d="M878.721,474.329H862.513v-13.2h16.208v3.691H866.2v1.055h12.517v3.691H866.2v1.076h12.517Z" transform="translate(-727.948 -461.128)" fill="#fff"/></g><g transform="translate(807.29 477.47)"><path d="M799.7,484.641h-2.265l-3.24-4.355h-8.885l-3.243,4.355h-2.244l9.938-13.337Zm-9.959-10.311-2.89,3.906h5.8Z" transform="translate(-779.821 -470.972)" fill="#fff"/><path d="M807,484.75H796.83a3.581,3.581,0,0,1-3.593-3.593V471.1h1.971v9.666a2,2,0,0,0,2.011,1.992h9.393a1.95,1.95,0,0,0,1.416-.586,1.9,1.9,0,0,0,.6-1.406V471.1H810.6v10.057A3.586,3.586,0,0,1,807,484.75Z" transform="translate(-771.405 -471.1)" fill="#fff"/><path d="M814.77,484.75H812.8V473.072H805.1V471.1h17.36v1.972h-7.7Z" transform="translate(-763.96 -471.1)" fill="#fff"/><path d="M830.74,484.828H820.566a3.6,3.6,0,0,1-3.593-3.593v-6.542a3.6,3.6,0,0,1,3.593-3.593H830.74a3.6,3.6,0,0,1,3.593,3.593v6.542a3.6,3.6,0,0,1-3.593,3.593Zm-9.785-11.736a1.978,1.978,0,0,0-1,.264,1.953,1.953,0,0,0-.732.732,1.929,1.929,0,0,0-.273,1v5.741a2,2,0,0,0,2.01,1.992h9.394a2,2,0,0,0,1.99-1.992v-5.741a2,2,0,0,0-1.99-1.992Z" transform="translate(-756.515 -471.1)" fill="#fff"/></g></g></svg>